<?xml version="1.0" encoding="utf-8"?>
<!-- Generator: Adobe Illustrator 27.3.1, SVG Export Plug-In . SVG Version: 6.00 Build 0)  -->
<svg version="1.1" id="Layer_1" xmlns="http://www.w3.org/2000/svg" xmlns:xlink="http://www.w3.org/1999/xlink" x="0px" y="0px"
	 viewBox="0 0 397 400" style="enable-background:new 0 0 397 400;" xml:space="preserve">
<g>
	<g>
		<g transform="translate(33.631273, 96.661859)">
			<g>
				<path d="M55.2-19.4c0.3,0.5,0.5,1,0.5,1.6c0,0.6-0.2,1.2-0.7,1.6c-0.5,0.5-1.1,0.7-1.8,0.7H23.6c-1.8,0-3.1-0.6-4.1-1.8
					L-0.4-41.9v23.3c0,0.8-0.3,1.6-0.9,2.2c-0.6,0.6-1.3,0.9-2.2,0.9h-23.6c-0.8,0-1.6-0.3-2.2-0.9c-0.6-0.6-0.9-1.3-0.9-2.2v-73.9
					c0-0.8,0.3-1.6,0.9-2.2c0.6-0.6,1.3-0.9,2.2-0.9h23.6c0.8,0,1.6,0.3,2.2,0.9c0.6,0.6,0.9,1.3,0.9,2.2v21.5l18.1-22.6
					c1.2-1.3,2.6-2,4.2-2h27.6c0.7,0,1.3,0.3,1.8,0.8c0.5,0.5,0.7,1.1,0.7,1.7c0,0.6-0.2,1.2-0.6,1.6L24.3-58.3L55.2-19.4z"/>
			</g>
		</g>
	</g>
	<g>
		<g transform="translate(150.654863, 96.661859)">
			<g>
				<path d="M23.8-15.4H2.1c-0.7,0-1.3-0.2-1.8-0.7c-0.5-0.5-0.7-1-0.7-1.4c0-0.5,0-0.8,0.1-1l25-73.1c0.7-2.5,2.4-3.8,5.1-3.8h31.8
					c2.7,0,4.4,1.3,5.1,3.8l25,73.1c0.1,0.2,0.1,0.6,0.1,1c0,0.5-0.2,0.9-0.7,1.4c-0.5,0.5-1.1,0.7-1.8,0.7H67.7
					c-2.4,0-4.2-1.3-5.2-3.9l-2.9-8H31.8l-2.9,8C27.9-16.7,26.2-15.4,23.8-15.4z M53.8-49.6l-8.1-23.8l-8.1,23.8H53.8z"/>
			</g>
		</g>
	</g>
	<g>
		<g transform="translate(267.678454, 96.661859)">
			<g>
				<path d="M89.1-66.4c12.5,1.4,21.4,4.1,26.7,8.1c5.3,3.9,8,9.8,8,17.7c0,7.9-3.9,14.2-11.6,19.1c-7.7,4.9-17.9,7.3-30.7,7.3
					c-12.7,0-22.6-2.3-29.7-7C44.8-26,41.3-31.8,41.3-38.6c0-1.7,0.9-2.5,2.6-2.5h23.4c1.6,0,2.9,0.5,3.9,1.5
					c2.1,2.1,5.8,3.1,11.1,3.1c7.2,0,10.9-1.1,10.9-3.3c0-1.4-1.1-2.5-3.4-3.3c-2.3-0.8-6.8-1.6-13.6-2.4
					c-21.6-2.6-32.4-10.9-32.4-24.8c0-7.8,3.5-14.2,10.4-19c6.9-4.9,16.2-7.3,27.9-7.3s21,2.5,28.2,7.6C117.5-84,121-78.6,121-73
					c0,0.8-0.2,1.4-0.7,1.8c-0.5,0.5-1.2,0.7-2,0.7H93.7c-1.4,0-2.6-0.5-3.5-1.4c-1.8-1.7-4.6-2.5-8.2-2.5c-5.1,0-7.7,1.1-7.7,3.2
					c0,1.1,1,2,3,2.7C79.2-67.8,83.2-67.1,89.1-66.4z"/>
			</g>
		</g>
	</g>
	<g>
		<g transform="translate(33.631273, 217.411851)">
			<g>
				<path d="M14.2-27.8c12.5,1.4,21.4,4.1,26.7,8.1c5.3,3.9,8,9.8,8,17.7c0,7.9-3.9,14.2-11.6,19.1c-7.7,4.9-17.9,7.3-30.7,7.3
					c-12.7,0-22.6-2.3-29.7-7C-30.1,12.6-33.6,6.8-33.6,0c0-1.7,0.9-2.5,2.6-2.5h23.4C-5.9-2.5-4.6-2-3.6-1C-1.5,1,2.2,2,7.5,2
					c7.2,0,10.9-1.1,10.9-3.3c0-1.4-1.1-2.5-3.4-3.3C12.6-5.3,8.1-6.1,1.3-6.9c-21.6-2.6-32.4-10.9-32.4-24.8
					c0-7.8,3.5-14.2,10.4-19C-13.7-55.6-4.4-58,7.2-58s21,2.5,28.2,7.6c7.2,5.1,10.8,10.4,10.8,16.1c0,0.8-0.2,1.4-0.7,1.8
					c-0.5,0.5-1.2,0.7-2,0.7H18.8c-1.4,0-2.6-0.5-3.5-1.4c-1.8-1.7-4.6-2.5-8.2-2.5c-5.1,0-7.7,1.1-7.7,3.2c0,1.1,1,2,3,2.7
					C4.3-29.2,8.3-28.5,14.2-27.8z"/>
			</g>
		</g>
	</g>
	<g>
		<g transform="translate(150.654863, 217.411851)">
			<g>
				<path d="M23.8,23.2H2.1c-0.7,0-1.3-0.2-1.8-0.7c-0.5-0.5-0.7-1-0.7-1.4c0-0.5,0-0.8,0.1-1l25-73.1c0.7-2.5,2.4-3.8,5.1-3.8h31.8
					c2.7,0,4.4,1.3,5.1,3.8l25,73.1c0.1,0.2,0.1,0.6,0.1,1c0,0.5-0.2,0.9-0.7,1.4c-0.5,0.5-1.1,0.7-1.8,0.7H67.7
					c-2.4,0-4.2-1.3-5.2-3.9l-2.9-8H31.8l-2.9,8C27.9,21.9,26.2,23.2,23.8,23.2z M53.8-11l-8.1-23.8L37.6-11H53.8z"/>
			</g>
		</g>
	</g>
	<g>
		<g transform="translate(267.678454, 217.411851)">
			<g>
				<path d="M97.3-56.9h21.3c0.8,0,1.6,0.3,2.2,0.9c0.6,0.6,0.9,1.3,0.9,2.2v73.9c0,0.8-0.3,1.6-0.9,2.2c-0.6,0.6-1.3,0.9-2.2,0.9
					h-18.4c-1.8,0-3.4-0.8-4.6-2.4L70.7-11v31.1c0,0.8-0.3,1.6-0.9,2.2c-0.6,0.6-1.3,0.9-2.2,0.9H46.3c-0.8,0-1.6-0.3-2.2-0.9
					c-0.6-0.6-0.9-1.3-0.9-2.2v-73.9c0-0.8,0.3-1.6,0.9-2.2c0.6-0.6,1.3-0.9,2.2-0.9h18.5c1.8,0,3.3,0.8,4.5,2.3l25,34.4v-33.6
					c0-0.8,0.3-1.6,0.9-2.2C95.8-56.6,96.5-56.9,97.3-56.9z"/>
			</g>
		</g>
	</g>
	<g>
		<g transform="translate(33.631273, 338.161844)">
			<g>
				<path d="M-28.9-18.3H7.6c8.4,0,15.7,1.1,21.9,3.3c6.2,2.2,11.2,6,15,11.2c3.8,5.3,5.7,11.8,5.7,19.7v11.7
					c0,12.2-4.1,21.1-12.4,26.7c-7.5,5-17.6,7.5-30.2,7.5h-36.5c-0.8,0-1.6-0.3-2.2-0.9c-0.6-0.6-0.9-1.3-0.9-2.2v-73.9
					c0-0.8,0.3-1.6,0.9-2.2C-30.5-18-29.7-18.3-28.9-18.3z M-2.2,4.1v35.5H8.2c3.6,0,6.4-0.9,8.5-2.6c2.1-1.7,3.2-4.1,3.2-7.3V13.9
					c0-3.1-1.1-5.5-3.2-7.3c-2.1-1.7-4.9-2.6-8.5-2.6H-2.2z"/>
			</g>
		</g>
	</g>
	<g>
		<g transform="translate(150.654863, 338.161844)">
			<g>
				<path d="M90.8,58.3c0.2,0.3,0.2,0.7,0.2,1.3s-0.3,1.1-0.8,1.5c-0.5,0.5-1.1,0.7-1.8,0.7h-26c-2.3,0-3.9-1-4.8-2.9L47.7,36.3
					h-9.6v22.4c0,0.8-0.3,1.6-0.9,2.2c-0.6,0.6-1.3,0.9-2.2,0.9H10.3c-0.8,0-1.6-0.3-2.2-0.9c-0.6-0.6-0.9-1.3-0.9-2.2v-73.9
					c0-0.8,0.3-1.6,0.9-2.2c0.6-0.6,1.3-0.9,2.2-0.9h44.5c10.4,0,18.7,2.5,24.8,7.4c6.1,5,9.2,11.7,9.2,20.3c0,10.4-4,17.9-12,22.5
					L90.8,58.3z M38.1,3v12.1h14.3c1.7,0,3-0.5,3.9-1.6c0.9-1.1,1.4-2.5,1.4-4.2c0-1.7-0.4-3.2-1.3-4.4c-0.9-1.3-2.2-1.9-4-1.9H38.1
					z"/>
			</g>
		</g>
	</g>
	<g>
		<g transform="translate(267.678454, 338.161844)">
			<g>
				<path d="M61.2,61.8H39.6c-0.7,0-1.3-0.2-1.8-0.7c-0.5-0.5-0.7-1-0.7-1.4c0-0.5,0-0.8,0.1-1l25-73.1c0.7-2.5,2.4-3.8,5.1-3.8
					h31.8c2.7,0,4.4,1.3,5.1,3.8l25,73.1c0.1,0.2,0.1,0.6,0.1,1c0,0.5-0.2,0.9-0.7,1.4c-0.5,0.5-1.1,0.7-1.8,0.7h-21.6
					c-2.4,0-4.2-1.3-5.2-3.9l-2.9-8H69.2l-2.9,8C65.4,60.5,63.6,61.8,61.2,61.8z M91.3,27.6L83.2,3.8l-8.1,23.8H91.3z"/>
			</g>
		</g>
	</g>
</g>
</svg>
