<?xml version="1.0" encoding="utf-8"?>
<!-- Generator: Adobe Illustrator 27.3.1, SVG Export Plug-In . SVG Version: 6.00 Build 0)  -->
<svg version="1.1" id="Layer_1" xmlns="http://www.w3.org/2000/svg" xmlns:xlink="http://www.w3.org/1999/xlink" x="0px" y="0px"
	 viewBox="0 0 397 400" style="enable-background:new 0 0 397 400;" xml:space="preserve">
<style type="text/css">
	.st0{fill:#FFFFFF;}
</style>
<g>
	<g>
		<g transform="translate(33.631273, 96.661869)">
			<g>
				<path class="st0" d="M57.7-20.6c0.3,0.5,0.5,1,0.5,1.6c0,0.6-0.2,1.2-0.7,1.6c-0.5,0.5-1.1,0.7-1.8,0.7H26.1
					c-1.8,0-3.1-0.6-4.1-1.8L2.1-43v23.3c0,0.8-0.3,1.6-0.9,2.2c-0.6,0.6-1.3,0.9-2.2,0.9h-23.6c-0.8,0-1.6-0.3-2.2-0.9
					c-0.6-0.6-0.9-1.3-0.9-2.2v-73.9c0-0.8,0.3-1.6,0.9-2.2c0.6-0.6,1.3-0.9,2.2-0.9H-1c0.8,0,1.6,0.3,2.2,0.9
					c0.6,0.6,0.9,1.3,0.9,2.2v21.5l18.1-22.6c1.2-1.3,2.6-2,4.2-2H52c0.7,0,1.3,0.3,1.8,0.8c0.5,0.5,0.7,1.1,0.7,1.7
					c0,0.6-0.2,1.2-0.6,1.6L26.8-59.5L57.7-20.6z"/>
			</g>
		</g>
	</g>
	<g>
		<g transform="translate(150.654863, 96.661869)">
			<g>
				<path class="st0" d="M26.2-16.6H4.6c-0.7,0-1.3-0.2-1.8-0.7c-0.5-0.5-0.7-1-0.7-1.4c0-0.5,0-0.8,0.1-1l25-73.1
					c0.7-2.5,2.4-3.8,5.1-3.8h31.8c2.7,0,4.4,1.3,5.1,3.8l25,73.1c0.1,0.2,0.1,0.6,0.1,1c0,0.5-0.2,0.9-0.7,1.4
					c-0.5,0.5-1.1,0.7-1.8,0.7H70.2c-2.4,0-4.2-1.3-5.2-3.9l-2.9-8H34.3l-2.9,8C30.4-17.9,28.7-16.6,26.2-16.6z M56.3-50.8
					l-8.1-23.8l-8.1,23.8H56.3z"/>
			</g>
		</g>
	</g>
	<g>
		<g transform="translate(267.678454, 96.661869)">
			<g>
				<path class="st0" d="M91.6-67.6c12.5,1.4,21.4,4.1,26.7,8.1c5.3,3.9,8,9.8,8,17.7c0,7.9-3.9,14.2-11.6,19.1
					c-7.7,4.9-17.9,7.3-30.7,7.3c-12.7,0-22.6-2.3-29.7-7c-7.1-4.7-10.6-10.5-10.6-17.3c0-1.7,0.9-2.5,2.6-2.5h23.4
					c1.6,0,2.9,0.5,3.9,1.5c2.1,2.1,5.8,3.1,11.1,3.1c7.2,0,10.9-1.1,10.9-3.3c0-1.4-1.1-2.5-3.4-3.3c-2.3-0.8-6.8-1.6-13.6-2.4
					c-21.6-2.6-32.4-10.9-32.4-24.8c0-7.8,3.5-14.2,10.4-19c6.9-4.9,16.2-7.3,27.9-7.3s21,2.5,28.2,7.6c7.2,5.1,10.8,10.4,10.8,16.1
					c0,0.8-0.2,1.4-0.7,1.8c-0.5,0.5-1.2,0.7-2,0.7H96.2c-1.4,0-2.6-0.5-3.5-1.4c-1.8-1.7-4.6-2.5-8.2-2.5c-5.1,0-7.7,1.1-7.7,3.2
					c0,1.1,1,2,3,2.7C81.7-68.9,85.6-68.3,91.6-67.6z"/>
			</g>
		</g>
	</g>
	<g>
		<g transform="translate(33.631273, 217.411861)">
			<g>
				<path class="st0" d="M16.7-29c12.5,1.4,21.4,4.1,26.7,8.1c5.3,3.9,8,9.8,8,17.7c0,7.9-3.9,14.2-11.6,19.1
					c-7.7,4.9-17.9,7.3-30.7,7.3c-12.7,0-22.6-2.3-29.7-7c-7.1-4.7-10.6-10.5-10.6-17.3c0-1.7,0.9-2.5,2.6-2.5H-5
					c1.6,0,2.9,0.5,3.9,1.5C1-0.1,4.7,0.9,10,0.9c7.2,0,10.9-1.1,10.9-3.3c0-1.4-1.1-2.5-3.4-3.3C15.1-6.5,10.6-7.3,3.8-8
					c-21.6-2.6-32.4-10.9-32.4-24.8c0-7.8,3.5-14.2,10.4-19c6.9-4.9,16.2-7.3,27.9-7.3s21,2.5,28.2,7.6c7.2,5.1,10.8,10.4,10.8,16.1
					c0,0.8-0.2,1.4-0.7,1.8s-1.2,0.7-2,0.7H21.3c-1.4,0-2.6-0.5-3.5-1.4c-1.8-1.7-4.6-2.5-8.2-2.5c-5.1,0-7.7,1.1-7.7,3.2
					c0,1.1,1,2,3,2.7C6.8-30.3,10.8-29.7,16.7-29z"/>
			</g>
		</g>
	</g>
	<g>
		<g transform="translate(150.654863, 217.411861)">
			<g>
				<path class="st0" d="M26.2,22.1H4.6c-0.7,0-1.3-0.2-1.8-0.7c-0.5-0.5-0.7-1-0.7-1.4c0-0.5,0-0.8,0.1-1l25-73.1
					c0.7-2.5,2.4-3.8,5.1-3.8h31.8c2.7,0,4.4,1.3,5.1,3.8l25,73.1c0.1,0.2,0.1,0.6,0.1,1c0,0.5-0.2,0.9-0.7,1.4
					c-0.5,0.5-1.1,0.7-1.8,0.7H70.2c-2.4,0-4.2-1.3-5.2-3.9l-2.9-8H34.3l-2.9,8C30.4,20.8,28.7,22.1,26.2,22.1z M56.3-12.2L48.2-36
					l-8.1,23.8H56.3z"/>
			</g>
		</g>
	</g>
	<g>
		<g transform="translate(267.678454, 217.411861)">
			<g>
				<path class="st0" d="M99.8-58h21.3c0.8,0,1.6,0.3,2.2,0.9c0.6,0.6,0.9,1.3,0.9,2.2V19c0,0.8-0.3,1.6-0.9,2.2
					c-0.6,0.6-1.3,0.9-2.2,0.9h-18.4c-1.8,0-3.4-0.8-4.6-2.4L73.2-12.2V19c0,0.8-0.3,1.6-0.9,2.2c-0.6,0.6-1.3,0.9-2.2,0.9H48.8
					c-0.8,0-1.6-0.3-2.2-0.9c-0.6-0.6-0.9-1.3-0.9-2.2V-55c0-0.8,0.3-1.6,0.9-2.2c0.6-0.6,1.3-0.9,2.2-0.9h18.5
					c1.8,0,3.3,0.8,4.5,2.3l25,34.4V-55c0-0.8,0.3-1.6,0.9-2.2C98.3-57.7,99-58,99.8-58z"/>
			</g>
		</g>
	</g>
	<g>
		<g transform="translate(33.631273, 338.161853)">
			<g>
				<path class="st0" d="M-26.4-19.4h36.5c8.4,0,15.7,1.1,21.9,3.3c6.2,2.2,11.2,6,15,11.2c3.8,5.3,5.7,11.8,5.7,19.7v11.7
					c0,12.2-4.1,21.1-12.4,26.7c-7.5,5-17.6,7.5-30.2,7.5h-36.5c-0.8,0-1.6-0.3-2.2-0.9c-0.6-0.6-0.9-1.3-0.9-2.2v-73.9
					c0-0.8,0.3-1.6,0.9-2.2C-28-19.1-27.3-19.4-26.4-19.4z M0.2,2.9v35.5h10.4c3.6,0,6.4-0.9,8.5-2.6c2.1-1.7,3.2-4.1,3.2-7.3V12.7
					c0-3.1-1.1-5.5-3.2-7.3c-2.1-1.7-4.9-2.6-8.5-2.6H0.2z"/>
			</g>
		</g>
	</g>
	<g>
		<g transform="translate(150.654863, 338.161853)">
			<g>
				<path class="st0" d="M93.3,57.1c0.2,0.3,0.2,0.7,0.2,1.3s-0.3,1.1-0.8,1.5c-0.5,0.5-1.1,0.7-1.8,0.7H65c-2.3,0-3.9-1-4.8-2.9
					L50.2,35.2h-9.6v22.4c0,0.8-0.3,1.6-0.9,2.2c-0.6,0.6-1.3,0.9-2.2,0.9H12.7c-0.8,0-1.6-0.3-2.2-0.9c-0.6-0.6-0.9-1.3-0.9-2.2
					v-73.9c0-0.8,0.3-1.6,0.9-2.2c0.6-0.6,1.3-0.9,2.2-0.9h44.5c10.4,0,18.7,2.5,24.8,7.4c6.1,5,9.2,11.7,9.2,20.3
					c0,10.4-4,17.9-12,22.5L93.3,57.1z M40.5,1.9V14h14.3c1.7,0,3-0.5,3.9-1.6c0.9-1.1,1.4-2.5,1.4-4.2c0-1.7-0.4-3.2-1.3-4.4
					c-0.9-1.3-2.2-1.9-4-1.9H40.5z"/>
			</g>
		</g>
	</g>
	<g>
		<g transform="translate(267.678454, 338.161853)">
			<g>
				<path class="st0" d="M63.7,60.7H42.1c-0.7,0-1.3-0.2-1.8-0.7c-0.5-0.5-0.7-1-0.7-1.4c0-0.5,0-0.8,0.1-1l25-73.1
					c0.7-2.5,2.4-3.8,5.1-3.8h31.8c2.7,0,4.4,1.3,5.1,3.8l25,73.1c0.1,0.2,0.1,0.6,0.1,1c0,0.5-0.2,0.9-0.7,1.4
					c-0.5,0.5-1.1,0.7-1.8,0.7h-21.6c-2.4,0-4.2-1.3-5.2-3.9l-2.9-8H71.7l-2.9,8C67.8,59.4,66.1,60.7,63.7,60.7z M93.8,26.5
					L85.7,2.7l-8.1,23.8H93.8z"/>
			</g>
		</g>
	</g>
</g>
</svg>
